%TF.GenerationSoftware,KiCad,Pcbnew,10.0.6*%
%TF.CreationDate,2026-09-05T18:49:54+05:30*%
%TF.ProjectId,Buck_Converter,4275636b-5f43-46f6-9e76-65727465722e,rev?*%
%TF.SameCoordinates,Original*%
%TF.FileFunction,Copper,L1,Top*%
%TF.FilePolarity,Positive*%
%FSLAX46Y46*%
G04 Gerber Fmt 4.6, Leading zero omitted, Abs format (unit mm)*
G04 Created by KiCad (PCBNEW 10.0.6) date 2026-09-05 18:49:54*
%MOMM*%
%LPD*%
G01*
G04 APERTURE LIST*
G04 Aperture macros list*
%AMRoundRect*
0 Rectangle with rounded corners*
0 $1 Rounding radius*
0 $2 $3 $4 $5 $6 $7 $8 $9 X,Y pos of 4 corners*
0 Add a 4 corners polygon primitive as box body*
4,1,4,$2,$3,$4,$5,$6,$7,$8,$9,$2,$3,0*
0 Add four circle primitives for the rounded corners*
1,1,$1+$1,$2,$3*
1,1,$1+$1,$4,$5*
1,1,$1+$1,$6,$7*
1,1,$1+$1,$8,$9*
0 Add four rect primitives between the rounded corners*
20,1,$1+$1,$2,$3,$4,$5,0*
20,1,$1+$1,$4,$5,$6,$7,0*
20,1,$1+$1,$6,$7,$8,$9,0*
20,1,$1+$1,$8,$9,$2,$3,0*%
G04 Aperture macros list end*
%TA.AperFunction,ComponentPad*%
%ADD10C,1.600000*%
%TD*%
%TA.AperFunction,ComponentPad*%
%ADD11RoundRect,0.250000X1.350000X1.350000X-1.350000X1.350000X-1.350000X-1.350000X1.350000X-1.350000X0*%
%TD*%
%TA.AperFunction,ComponentPad*%
%ADD12C,3.200000*%
%TD*%
%TA.AperFunction,ComponentPad*%
%ADD13RoundRect,0.250000X-1.050000X1.050000X-1.050000X-1.050000X1.050000X-1.050000X1.050000X1.050000X0*%
%TD*%
%TA.AperFunction,ComponentPad*%
%ADD14C,2.600000*%
%TD*%
%TA.AperFunction,ComponentPad*%
%ADD15RoundRect,0.250000X0.550000X0.550000X-0.550000X0.550000X-0.550000X-0.550000X0.550000X-0.550000X0*%
%TD*%
%TA.AperFunction,ComponentPad*%
%ADD16RoundRect,0.250000X0.750000X-0.750000X0.750000X0.750000X-0.750000X0.750000X-0.750000X-0.750000X0*%
%TD*%
%TA.AperFunction,ComponentPad*%
%ADD17C,2.000000*%
%TD*%
%TA.AperFunction,ComponentPad*%
%ADD18R,1.800000X1.800000*%
%TD*%
%TA.AperFunction,ComponentPad*%
%ADD19C,1.800000*%
%TD*%
%TA.AperFunction,ComponentPad*%
%ADD20C,2.400000*%
%TD*%
%TA.AperFunction,ComponentPad*%
%ADD21RoundRect,0.250000X1.050000X-1.050000X1.050000X1.050000X-1.050000X1.050000X-1.050000X-1.050000X0*%
%TD*%
%TA.AperFunction,Conductor*%
%ADD22C,1.250000*%
%TD*%
%TA.AperFunction,Conductor*%
%ADD23C,0.900000*%
%TD*%
%TA.AperFunction,Conductor*%
%ADD24C,1.500000*%
%TD*%
G04 APERTURE END LIST*
D10*
%TO.P,C2,1*%
%TO.N,/VIN*%
X66000000Y-46000000D03*
%TO.P,C2,2*%
%TO.N,GND*%
X66000000Y-41000000D03*
%TD*%
D11*
%TO.P,D1,1*%
%TO.N,/SW*%
X80000000Y-55000000D03*
D12*
%TO.P,D1,2*%
%TO.N,GND*%
X64760000Y-55000000D03*
%TD*%
D13*
%TO.P,J2,1*%
%TO.N,/+5V*%
X110000000Y-64000000D03*
D14*
%TO.P,J2,2*%
%TO.N,GND*%
X110000000Y-69080000D03*
%TD*%
D15*
%TO.P,C3,1*%
%TO.N,/+5V*%
X98000000Y-70000000D03*
D10*
%TO.P,C3,2*%
%TO.N,GND*%
X94500000Y-70000000D03*
%TD*%
D16*
%TO.P,C1,1*%
%TO.N,/VIN*%
X57000000Y-54000000D03*
D17*
%TO.P,C1,2*%
%TO.N,GND*%
X57000000Y-49000000D03*
%TD*%
D18*
%TO.P,U1,1*%
%TO.N,/VIN*%
X72000000Y-48000000D03*
D19*
%TO.P,U1,2*%
%TO.N,/SW*%
X73700000Y-44300000D03*
%TO.P,U1,3*%
%TO.N,GND*%
X75400000Y-48000000D03*
%TO.P,U1,4*%
%TO.N,/+5V*%
X77100000Y-44300000D03*
%TO.P,U1,5*%
%TO.N,GND*%
X78800000Y-48000000D03*
%TD*%
D20*
%TO.P,L1,1*%
%TO.N,/SW*%
X87000000Y-59000000D03*
%TO.P,L1,2*%
%TO.N,/+5V*%
X94000000Y-59000000D03*
%TD*%
D21*
%TO.P,J1,1*%
%TO.N,/VIN*%
X53000000Y-69000000D03*
D14*
%TO.P,J1,2*%
%TO.N,GND*%
X53000000Y-63920000D03*
%TD*%
%TO.N,/VIN*%
D22*
X69000000Y-46000000D02*
X69000000Y-51000000D01*
X69000000Y-51000000D02*
X72000000Y-48000000D01*
X62000000Y-51000000D02*
X69000000Y-51000000D01*
X56000000Y-57000000D02*
X57000000Y-54000000D01*
X57000000Y-54000000D02*
X62000000Y-51000000D01*
X66000000Y-46000000D02*
X69000000Y-46000000D01*
X53000000Y-69000000D02*
X56000000Y-66000000D01*
X56000000Y-66000000D02*
X56000000Y-57000000D01*
%TO.N,GND*%
X75400000Y-48000000D02*
X78800000Y-48000000D01*
%TO.N,/SW*%
X83000000Y-55000000D02*
X87000000Y-59000000D01*
D23*
X73700000Y-44300000D02*
X73700000Y-51000000D01*
D22*
X80000000Y-55000000D02*
X83000000Y-55000000D01*
X77700000Y-55000000D02*
X80000000Y-55000000D01*
X73700000Y-51000000D02*
X77700000Y-55000000D01*
%TO.N,/+5V*%
D24*
X107000000Y-67000000D02*
X110000000Y-64000000D01*
X98000000Y-70000000D02*
X101000000Y-67000000D01*
X101000000Y-67000000D02*
X107000000Y-67000000D01*
X94000000Y-59000000D02*
X97000000Y-62000000D01*
X97000000Y-62000000D02*
X98000000Y-70000000D01*
%TD*%
%TA.AperFunction,Conductor*%
%TO.N,GND*%
G36*
X117343039Y-37619685D02*
G01*
X117388794Y-37672489D01*
X117400000Y-37724000D01*
X117400000Y-81276000D01*
X117380315Y-81343039D01*
X117327511Y-81388794D01*
X117276000Y-81400000D01*
X47724000Y-81400000D01*
X47656961Y-81380315D01*
X47611206Y-81327511D01*
X47600000Y-81276000D01*
X47600000Y-77878711D01*
X49149500Y-77878711D01*
X49149500Y-78121288D01*
X49181161Y-78361785D01*
X49243947Y-78596104D01*
X49336773Y-78820205D01*
X49336776Y-78820212D01*
X49458064Y-79030289D01*
X49458066Y-79030292D01*
X49458067Y-79030293D01*
X49605733Y-79222736D01*
X49605739Y-79222743D01*
X49777256Y-79394260D01*
X49777262Y-79394265D01*
X49969711Y-79541936D01*
X50179788Y-79663224D01*
X50403900Y-79756054D01*
X50638211Y-79818838D01*
X50818586Y-79842584D01*
X50878711Y-79850500D01*
X50878712Y-79850500D01*
X51121289Y-79850500D01*
X51169388Y-79844167D01*
X51361789Y-79818838D01*
X51596100Y-79756054D01*
X51820212Y-79663224D01*
X52030289Y-79541936D01*
X52222738Y-79394265D01*
X52394265Y-79222738D01*
X52541936Y-79030289D01*
X52663224Y-78820212D01*
X52756054Y-78596100D01*
X52818838Y-78361789D01*
X52850500Y-78121288D01*
X52850500Y-77878712D01*
X52850500Y-77878711D01*
X112149500Y-77878711D01*
X112149500Y-78121288D01*
X112181161Y-78361785D01*
X112243947Y-78596104D01*
X112336773Y-78820205D01*
X112336776Y-78820212D01*
X112458064Y-79030289D01*
X112458066Y-79030292D01*
X112458067Y-79030293D01*
X112605733Y-79222736D01*
X112605739Y-79222743D01*
X112777256Y-79394260D01*
X112777262Y-79394265D01*
X112969711Y-79541936D01*
X113179788Y-79663224D01*
X113403900Y-79756054D01*
X113638211Y-79818838D01*
X113818586Y-79842584D01*
X113878711Y-79850500D01*
X113878712Y-79850500D01*
X114121289Y-79850500D01*
X114169388Y-79844167D01*
X114361789Y-79818838D01*
X114596100Y-79756054D01*
X114820212Y-79663224D01*
X115030289Y-79541936D01*
X115222738Y-79394265D01*
X115394265Y-79222738D01*
X115541936Y-79030289D01*
X115663224Y-78820212D01*
X115756054Y-78596100D01*
X115818838Y-78361789D01*
X115850500Y-78121288D01*
X115850500Y-77878712D01*
X115818838Y-77638211D01*
X115756054Y-77403900D01*
X115663224Y-77179788D01*
X115541936Y-76969711D01*
X115394265Y-76777262D01*
X115394260Y-76777256D01*
X115222743Y-76605739D01*
X115222736Y-76605733D01*
X115030293Y-76458067D01*
X115030292Y-76458066D01*
X115030289Y-76458064D01*
X114820212Y-76336776D01*
X114820205Y-76336773D01*
X114596104Y-76243947D01*
X114361785Y-76181161D01*
X114121289Y-76149500D01*
X114121288Y-76149500D01*
X113878712Y-76149500D01*
X113878711Y-76149500D01*
X113638214Y-76181161D01*
X113403895Y-76243947D01*
X113179794Y-76336773D01*
X113179785Y-76336777D01*
X112969706Y-76458067D01*
X112777263Y-76605733D01*
X112777256Y-76605739D01*
X112605739Y-76777256D01*
X112605733Y-76777263D01*
X112458067Y-76969706D01*
X112336777Y-77179785D01*
X112336773Y-77179794D01*
X112243947Y-77403895D01*
X112181161Y-77638214D01*
X112149500Y-77878711D01*
X52850500Y-77878711D01*
X52818838Y-77638211D01*
X52756054Y-77403900D01*
X52663224Y-77179788D01*
X52541936Y-76969711D01*
X52394265Y-76777262D01*
X52394260Y-76777256D01*
X52222743Y-76605739D01*
X52222736Y-76605733D01*
X52030293Y-76458067D01*
X52030292Y-76458066D01*
X52030289Y-76458064D01*
X51820212Y-76336776D01*
X51820205Y-76336773D01*
X51596104Y-76243947D01*
X51361785Y-76181161D01*
X51121289Y-76149500D01*
X51121288Y-76149500D01*
X50878712Y-76149500D01*
X50878711Y-76149500D01*
X50638214Y-76181161D01*
X50403895Y-76243947D01*
X50179794Y-76336773D01*
X50179785Y-76336777D01*
X49969706Y-76458067D01*
X49777263Y-76605733D01*
X49777256Y-76605739D01*
X49605739Y-76777256D01*
X49605733Y-76777263D01*
X49458067Y-76969706D01*
X49336777Y-77179785D01*
X49336773Y-77179794D01*
X49243947Y-77403895D01*
X49181161Y-77638214D01*
X49149500Y-77878711D01*
X47600000Y-77878711D01*
X47600000Y-70961050D01*
X93963211Y-70961050D01*
X94077742Y-71019408D01*
X94242415Y-71072914D01*
X94413429Y-71100000D01*
X94586571Y-71100000D01*
X94757584Y-71072914D01*
X94922254Y-71019408D01*
X95036787Y-70961050D01*
X94500001Y-70424264D01*
X94500000Y-70424264D01*
X93963211Y-70961050D01*
X47600000Y-70961050D01*
X47600000Y-67906898D01*
X51399500Y-67906898D01*
X51399500Y-70093102D01*
X51405126Y-70139954D01*
X51410122Y-70181561D01*
X51465639Y-70322343D01*
X51557077Y-70442922D01*
X51677656Y-70534360D01*
X51677657Y-70534360D01*
X51677658Y-70534361D01*
X51818436Y-70589877D01*
X51906898Y-70600500D01*
X51906903Y-70600500D01*
X54093097Y-70600500D01*
X54093102Y-70600500D01*
X54181564Y-70589877D01*
X54322342Y-70534361D01*
X54442922Y-70442922D01*
X54534361Y-70322342D01*
X54589877Y-70181564D01*
X54600500Y-70093102D01*
X54600500Y-69913428D01*
X93400000Y-69913428D01*
X93400000Y-70086571D01*
X93427086Y-70257585D01*
X93427086Y-70257588D01*
X93480588Y-70422250D01*
X93538947Y-70536786D01*
X94075736Y-70000000D01*
X94023075Y-69947339D01*
X94100000Y-69947339D01*
X94100000Y-70052661D01*
X94127259Y-70154394D01*
X94179920Y-70245606D01*
X94254394Y-70320080D01*
X94345606Y-70372741D01*
X94447339Y-70400000D01*
X94552661Y-70400000D01*
X94654394Y-70372741D01*
X94745606Y-70320080D01*
X94820080Y-70245606D01*
X94872741Y-70154394D01*
X94900000Y-70052661D01*
X94900000Y-69999999D01*
X94924264Y-69999999D01*
X94924264Y-70000001D01*
X95461050Y-70536787D01*
X95519408Y-70422254D01*
X95572914Y-70257584D01*
X95600000Y-70086571D01*
X95600000Y-69913428D01*
X95572914Y-69742415D01*
X95519408Y-69577742D01*
X95461050Y-69463211D01*
X94924264Y-69999999D01*
X94900000Y-69999999D01*
X94900000Y-69947339D01*
X94872741Y-69845606D01*
X94820080Y-69754394D01*
X94745606Y-69679920D01*
X94654394Y-69627259D01*
X94552661Y-69600000D01*
X94447339Y-69600000D01*
X94345606Y-69627259D01*
X94254394Y-69679920D01*
X94179920Y-69754394D01*
X94127259Y-69845606D01*
X94100000Y-69947339D01*
X94023075Y-69947339D01*
X93538948Y-69463212D01*
X93480589Y-69577746D01*
X93480588Y-69577749D01*
X93427086Y-69742411D01*
X93427086Y-69742414D01*
X93400000Y-69913428D01*
X54600500Y-69913428D01*
X54600500Y-69038948D01*
X93963212Y-69038948D01*
X94500000Y-69575736D01*
X94500001Y-69575736D01*
X95036787Y-69038948D01*
X94922250Y-68980588D01*
X94757587Y-68927086D01*
X94586571Y-68900000D01*
X94413429Y-68900000D01*
X94242414Y-68927086D01*
X94242411Y-68927086D01*
X94077749Y-68980588D01*
X94077746Y-68980589D01*
X93963212Y-69038948D01*
X54600500Y-69038948D01*
X54600500Y-68759715D01*
X54620185Y-68692676D01*
X54636814Y-68672039D01*
X56589969Y-66718884D01*
X56589972Y-66718883D01*
X56718883Y-66589972D01*
X56820167Y-66438389D01*
X56840601Y-66389056D01*
X56889934Y-66269958D01*
X56925500Y-66091154D01*
X56925500Y-65908846D01*
X56925500Y-57170311D01*
X56931863Y-57131099D01*
X57044296Y-56793800D01*
X57513800Y-55385287D01*
X57553674Y-55327913D01*
X57618238Y-55301205D01*
X57631437Y-55300500D01*
X57793097Y-55300500D01*
X57793102Y-55300500D01*
X57881564Y-55289877D01*
X58022342Y-55234361D01*
X58142922Y-55142922D01*
X58234361Y-55022342D01*
X58289877Y-54881564D01*
X58289878Y-54881558D01*
X58290610Y-54875466D01*
X62860000Y-54875466D01*
X62860000Y-55124533D01*
X62892508Y-55371463D01*
X62956973Y-55612049D01*
X63052283Y-55842148D01*
X63052288Y-55842159D01*
X63176813Y-56057841D01*
X63176824Y-56057858D01*
X63220698Y-56115035D01*
X63220699Y-56115035D01*
X64023442Y-55312293D01*
X64051049Y-55378942D01*
X64138599Y-55509970D01*
X64250030Y-55621401D01*
X64381058Y-55708951D01*
X64447705Y-55736557D01*
X63644963Y-56539299D01*
X63702150Y-56583180D01*
X63702158Y-56583186D01*
X63917840Y-56707711D01*
X63917851Y-56707716D01*
X64147950Y-56803026D01*
X64388536Y-56867491D01*
X64635466Y-56900000D01*
X64884534Y-56900000D01*
X65131463Y-56867491D01*
X65372049Y-56803026D01*
X65602148Y-56707716D01*
X65602159Y-56707711D01*
X65817845Y-56583183D01*
X65875035Y-56539299D01*
X65875035Y-56539298D01*
X65072293Y-55736557D01*
X65138942Y-55708951D01*
X65269970Y-55621401D01*
X65381401Y-55509970D01*
X65468951Y-55378942D01*
X65496557Y-55312294D01*
X66299298Y-56115035D01*
X66299299Y-56115035D01*
X66343183Y-56057845D01*
X66467711Y-55842159D01*
X66467716Y-55842148D01*
X66563026Y-55612049D01*
X66627491Y-55371463D01*
X66660000Y-55124533D01*
X66660000Y-54875466D01*
X66627491Y-54628536D01*
X66563026Y-54387950D01*
X66467716Y-54157851D01*
X66467711Y-54157840D01*
X66343186Y-53942158D01*
X66343180Y-53942150D01*
X66299299Y-53884963D01*
X65496557Y-54687705D01*
X65468951Y-54621058D01*
X65381401Y-54490030D01*
X65269970Y-54378599D01*
X65138942Y-54291049D01*
X65072293Y-54263442D01*
X65875035Y-53460699D01*
X65875035Y-53460698D01*
X65817858Y-53416824D01*
X65817841Y-53416813D01*
X65602159Y-53292288D01*
X65602148Y-53292283D01*
X65372049Y-53196973D01*
X65131463Y-53132508D01*
X64884534Y-53100000D01*
X64635466Y-53100000D01*
X64388536Y-53132508D01*
X64147950Y-53196973D01*
X63917851Y-53292283D01*
X63917840Y-53292288D01*
X63702160Y-53416811D01*
X63702153Y-53416817D01*
X63644963Y-53460699D01*
X64447706Y-54263442D01*
X64381058Y-54291049D01*
X64250030Y-54378599D01*
X64138599Y-54490030D01*
X64051049Y-54621058D01*
X64023442Y-54687706D01*
X63220699Y-53884963D01*
X63176817Y-53942153D01*
X63176811Y-53942160D01*
X63052288Y-54157840D01*
X63052283Y-54157851D01*
X62956973Y-54387950D01*
X62892508Y-54628536D01*
X62860000Y-54875466D01*
X58290610Y-54875466D01*
X58292872Y-54856627D01*
X58292872Y-54856625D01*
X58294455Y-54843439D01*
X58300500Y-54793102D01*
X58300500Y-54369216D01*
X58320185Y-54302177D01*
X58360703Y-54262887D01*
X62226896Y-51943170D01*
X62290693Y-51925500D01*
X69091156Y-51925500D01*
X69211445Y-51901572D01*
X69269958Y-51889933D01*
X69438389Y-51820167D01*
X69438391Y-51820166D01*
X69513672Y-51769864D01*
X69589972Y-51718883D01*
X72072035Y-49236817D01*
X72133358Y-49203333D01*
X72159716Y-49200499D01*
X72825500Y-49200499D01*
X72892539Y-49220184D01*
X72938294Y-49272988D01*
X72949500Y-49324499D01*
X72949500Y-50419730D01*
X72929815Y-50486769D01*
X72928603Y-50488619D01*
X72879838Y-50561602D01*
X72879831Y-50561614D01*
X72810067Y-50730041D01*
X72810065Y-50730047D01*
X72774500Y-50908843D01*
X72774500Y-50908846D01*
X72774500Y-51091154D01*
X72774500Y-51091156D01*
X72774499Y-51091156D01*
X72810065Y-51269952D01*
X72810068Y-51269962D01*
X72879831Y-51438387D01*
X72879833Y-51438391D01*
X72981113Y-51589967D01*
X72981119Y-51589975D01*
X77110024Y-55718880D01*
X77110032Y-55718886D01*
X77261608Y-55820166D01*
X77261612Y-55820168D01*
X77430037Y-55889931D01*
X77430042Y-55889933D01*
X77430046Y-55889933D01*
X77430047Y-55889934D01*
X77608843Y-55925500D01*
X77608846Y-55925500D01*
X77791154Y-55925500D01*
X77975500Y-55925500D01*
X78042539Y-55945185D01*
X78088294Y-55997989D01*
X78099500Y-56049500D01*
X78099500Y-56393102D01*
X78105126Y-56439954D01*
X78110122Y-56481561D01*
X78165639Y-56622343D01*
X78257077Y-56742922D01*
X78377656Y-56834360D01*
X78377657Y-56834360D01*
X78377658Y-56834361D01*
X78518436Y-56889877D01*
X78606898Y-56900500D01*
X78606903Y-56900500D01*
X81393097Y-56900500D01*
X81393102Y-56900500D01*
X81481564Y-56889877D01*
X81622342Y-56834361D01*
X81742922Y-56742922D01*
X81834361Y-56622342D01*
X81889877Y-56481564D01*
X81900500Y-56393102D01*
X81900500Y-56049500D01*
X81920185Y-55982461D01*
X81972989Y-55936706D01*
X82024500Y-55925500D01*
X82565283Y-55925500D01*
X82632322Y-55945185D01*
X82652964Y-55961819D01*
X85464880Y-58773735D01*
X85498365Y-58835058D01*
X85499565Y-58877021D01*
X85499882Y-58877046D01*
X85499650Y-58879986D01*
X85499674Y-58880802D01*
X85499500Y-58881900D01*
X85499500Y-59118097D01*
X85536446Y-59351368D01*
X85609433Y-59575996D01*
X85716657Y-59786433D01*
X85855483Y-59977510D01*
X86022490Y-60144517D01*
X86213567Y-60283343D01*
X86312991Y-60334002D01*
X86424003Y-60390566D01*
X86424005Y-60390566D01*
X86424008Y-60390568D01*
X86544412Y-60429689D01*
X86648631Y-60463553D01*
X86881903Y-60500500D01*
X86881908Y-60500500D01*
X87118097Y-60500500D01*
X87351368Y-60463553D01*
X87575992Y-60390568D01*
X87786433Y-60283343D01*
X87977510Y-60144517D01*
X88144517Y-59977510D01*
X88283343Y-59786433D01*
X88390568Y-59575992D01*
X88463553Y-59351368D01*
X88500500Y-59118097D01*
X88500500Y-58881902D01*
X92499500Y-58881902D01*
X92499500Y-59118097D01*
X92536446Y-59351368D01*
X92609433Y-59575996D01*
X92716657Y-59786433D01*
X92855483Y-59977510D01*
X93022490Y-60144517D01*
X93213567Y-60283343D01*
X93312991Y-60334002D01*
X93424003Y-60390566D01*
X93424005Y-60390566D01*
X93424008Y-60390568D01*
X93544412Y-60429689D01*
X93648631Y-60463553D01*
X93881903Y-60500500D01*
X93881908Y-60500500D01*
X93963507Y-60500500D01*
X94030546Y-60520185D01*
X94051188Y-60536819D01*
X95972234Y-62457866D01*
X96005719Y-62519189D01*
X96007595Y-62530167D01*
X96898542Y-69657740D01*
X96899500Y-69673120D01*
X96899500Y-70593102D01*
X96905126Y-70639954D01*
X96910122Y-70681561D01*
X96965639Y-70822343D01*
X97057077Y-70942922D01*
X97177656Y-71034360D01*
X97177657Y-71034360D01*
X97177658Y-71034361D01*
X97318436Y-71089877D01*
X97406898Y-71100500D01*
X97406903Y-71100500D01*
X98593097Y-71100500D01*
X98593102Y-71100500D01*
X98681564Y-71089877D01*
X98822342Y-71034361D01*
X98942922Y-70942922D01*
X99034361Y-70822342D01*
X99089877Y-70681564D01*
X99100500Y-70593102D01*
X99100500Y-70436493D01*
X99109144Y-70407052D01*
X99115668Y-70377066D01*
X99119422Y-70372050D01*
X99120185Y-70369454D01*
X99136819Y-70348812D01*
X99216565Y-70269066D01*
X100531561Y-68954071D01*
X108400000Y-68954071D01*
X108400000Y-69205928D01*
X108439397Y-69454669D01*
X108517219Y-69694184D01*
X108631559Y-69918586D01*
X108675991Y-69979742D01*
X108675992Y-69979743D01*
X109378247Y-69277488D01*
X109423978Y-69387890D01*
X109495112Y-69494351D01*
X109585649Y-69584888D01*
X109692110Y-69656022D01*
X109802510Y-69701752D01*
X109100255Y-70404006D01*
X109100256Y-70404007D01*
X109161413Y-70448440D01*
X109385815Y-70562780D01*
X109625330Y-70640602D01*
X109874072Y-70680000D01*
X110125928Y-70680000D01*
X110374669Y-70640602D01*
X110614184Y-70562780D01*
X110838575Y-70448446D01*
X110838588Y-70448438D01*
X110899742Y-70404007D01*
X110899743Y-70404006D01*
X110197488Y-69701752D01*
X110307890Y-69656022D01*
X110414351Y-69584888D01*
X110504888Y-69494351D01*
X110576022Y-69387890D01*
X110621752Y-69277489D01*
X111324006Y-69979743D01*
X111324007Y-69979742D01*
X111368438Y-69918588D01*
X111368446Y-69918575D01*
X111482780Y-69694184D01*
X111560602Y-69454669D01*
X111600000Y-69205928D01*
X111600000Y-68954071D01*
X111560602Y-68705330D01*
X111482780Y-68465815D01*
X111368440Y-68241413D01*
X111324007Y-68180256D01*
X111324006Y-68180255D01*
X110621752Y-68882510D01*
X110576022Y-68772110D01*
X110504888Y-68665649D01*
X110414351Y-68575112D01*
X110307890Y-68503978D01*
X110197488Y-68458247D01*
X110899743Y-67755992D01*
X110899742Y-67755991D01*
X110838586Y-67711559D01*
X110614184Y-67597219D01*
X110374669Y-67519397D01*
X110125928Y-67480000D01*
X109874072Y-67480000D01*
X109625330Y-67519397D01*
X109385815Y-67597219D01*
X109161418Y-67711556D01*
X109161416Y-67711557D01*
X109100256Y-67755991D01*
X109100256Y-67755992D01*
X109802511Y-68458247D01*
X109692110Y-68503978D01*
X109585649Y-68575112D01*
X109495112Y-68665649D01*
X109423978Y-68772110D01*
X109378247Y-68882511D01*
X108675992Y-68180256D01*
X108675991Y-68180256D01*
X108631557Y-68241416D01*
X108631556Y-68241418D01*
X108517219Y-68465815D01*
X108439397Y-68705330D01*
X108400000Y-68954071D01*
X100531561Y-68954071D01*
X100624108Y-68861524D01*
X101398813Y-68086819D01*
X101460136Y-68053334D01*
X101486494Y-68050500D01*
X107103466Y-68050500D01*
X107103467Y-68050499D01*
X107306420Y-68010130D01*
X107497598Y-67930941D01*
X107533581Y-67906898D01*
X107669655Y-67815977D01*
X107815977Y-67669655D01*
X107815977Y-67669653D01*
X107826181Y-67659450D01*
X107826184Y-67659445D01*
X109848813Y-65636819D01*
X109910136Y-65603334D01*
X109936494Y-65600500D01*
X111093097Y-65600500D01*
X111093102Y-65600500D01*
X111181564Y-65589877D01*
X111322342Y-65534361D01*
X111442922Y-65442922D01*
X111534361Y-65322342D01*
X111589877Y-65181564D01*
X111600500Y-65093102D01*
X111600500Y-62906898D01*
X111589877Y-62818436D01*
X111534361Y-62677658D01*
X111534360Y-62677657D01*
X111534360Y-62677656D01*
X111442922Y-62557077D01*
X111322343Y-62465639D01*
X111181561Y-62410122D01*
X111135926Y-62404642D01*
X111093102Y-62399500D01*
X108906898Y-62399500D01*
X108867853Y-62404188D01*
X108818438Y-62410122D01*
X108677656Y-62465639D01*
X108557077Y-62557077D01*
X108465639Y-62677656D01*
X108410122Y-62818438D01*
X108404188Y-62867853D01*
X108399500Y-62906898D01*
X108399500Y-62906903D01*
X108399500Y-64063506D01*
X108379815Y-64130545D01*
X108363181Y-64151187D01*
X106601188Y-65913181D01*
X106539865Y-65946666D01*
X106513507Y-65949500D01*
X101109599Y-65949500D01*
X101109579Y-65949499D01*
X101103465Y-65949499D01*
X100896535Y-65949499D01*
X100896533Y-65949499D01*
X100693585Y-65989868D01*
X100693575Y-65989871D01*
X100502408Y-66069054D01*
X100502395Y-66069061D01*
X100330345Y-66184022D01*
X100330341Y-66184025D01*
X98955249Y-67559117D01*
X98893926Y-67592602D01*
X98824234Y-67587618D01*
X98768301Y-67545746D01*
X98744527Y-67486818D01*
X98051459Y-61942267D01*
X98050501Y-61926887D01*
X98050501Y-61896533D01*
X98038568Y-61836547D01*
X98037143Y-61827734D01*
X98029556Y-61767043D01*
X98029555Y-61767042D01*
X98029555Y-61767035D01*
X98019987Y-61738233D01*
X98016050Y-61723345D01*
X98010130Y-61693580D01*
X97986719Y-61637061D01*
X97983602Y-61628695D01*
X97964325Y-61570659D01*
X97949325Y-61544282D01*
X97942554Y-61530436D01*
X97930942Y-61502401D01*
X97913692Y-61476586D01*
X97896948Y-61451527D01*
X97892275Y-61443957D01*
X97862033Y-61390775D01*
X97842172Y-61367827D01*
X97832836Y-61355575D01*
X97815980Y-61330349D01*
X97815974Y-61330341D01*
X97772722Y-61287090D01*
X97766655Y-61280571D01*
X97726615Y-61234307D01*
X97702657Y-61215672D01*
X97691113Y-61205481D01*
X95536819Y-59051187D01*
X95503334Y-58989864D01*
X95500500Y-58963506D01*
X95500500Y-58881902D01*
X95463553Y-58648631D01*
X95390566Y-58424003D01*
X95283342Y-58213566D01*
X95144517Y-58022490D01*
X94977510Y-57855483D01*
X94786433Y-57716657D01*
X94575996Y-57609433D01*
X94351368Y-57536446D01*
X94118097Y-57499500D01*
X94118092Y-57499500D01*
X93881908Y-57499500D01*
X93881903Y-57499500D01*
X93648631Y-57536446D01*
X93424003Y-57609433D01*
X93213566Y-57716657D01*
X93104550Y-57795862D01*
X93022490Y-57855483D01*
X93022488Y-57855485D01*
X93022487Y-57855485D01*
X92855485Y-58022487D01*
X92855485Y-58022488D01*
X92855483Y-58022490D01*
X92795862Y-58104550D01*
X92716657Y-58213566D01*
X92609433Y-58424003D01*
X92536446Y-58648631D01*
X92499500Y-58881902D01*
X88500500Y-58881902D01*
X88463553Y-58648631D01*
X88390566Y-58424003D01*
X88283342Y-58213566D01*
X88144517Y-58022490D01*
X87977510Y-57855483D01*
X87786433Y-57716657D01*
X87575996Y-57609433D01*
X87351368Y-57536446D01*
X87118097Y-57499500D01*
X87118092Y-57499500D01*
X86881908Y-57499500D01*
X86881900Y-57499500D01*
X86880802Y-57499674D01*
X86880381Y-57499619D01*
X86877046Y-57499882D01*
X86876990Y-57499181D01*
X86811510Y-57490713D01*
X86773735Y-57464880D01*
X83589975Y-54281119D01*
X83589967Y-54281113D01*
X83438391Y-54179833D01*
X83438387Y-54179831D01*
X83269962Y-54110068D01*
X83269952Y-54110065D01*
X83091156Y-54074500D01*
X83091154Y-54074500D01*
X82024500Y-54074500D01*
X81957461Y-54054815D01*
X81911706Y-54002011D01*
X81900500Y-53950500D01*
X81900500Y-53606903D01*
X81900500Y-53606898D01*
X81889877Y-53518436D01*
X81834361Y-53377658D01*
X81834360Y-53377657D01*
X81834360Y-53377656D01*
X81742922Y-53257077D01*
X81622343Y-53165639D01*
X81481561Y-53110122D01*
X81435926Y-53104642D01*
X81393102Y-53099500D01*
X78606898Y-53099500D01*
X78567853Y-53104188D01*
X78518438Y-53110122D01*
X78377656Y-53165639D01*
X78257077Y-53257077D01*
X78165639Y-53377656D01*
X78110122Y-53518438D01*
X78104188Y-53567853D01*
X78099500Y-53606898D01*
X78099500Y-53606903D01*
X78099500Y-53791283D01*
X78079815Y-53858322D01*
X78027011Y-53904077D01*
X77957853Y-53914021D01*
X77894297Y-53884996D01*
X77887819Y-53878964D01*
X74486819Y-50477964D01*
X74453334Y-50416641D01*
X74450500Y-50390283D01*
X74450500Y-49036794D01*
X74470185Y-48969755D01*
X74522989Y-48924000D01*
X74592147Y-48914056D01*
X74647385Y-48936476D01*
X74771059Y-49026329D01*
X74939362Y-49112085D01*
X75118997Y-49170451D01*
X75305553Y-49200000D01*
X75494447Y-49200000D01*
X75681001Y-49170452D01*
X75860637Y-49112084D01*
X76011137Y-49035400D01*
X75514467Y-48538730D01*
X75612292Y-48512518D01*
X75737708Y-48440110D01*
X75840110Y-48337708D01*
X75912518Y-48212292D01*
X75938730Y-48114467D01*
X76435400Y-48611137D01*
X76512084Y-48460637D01*
X76570452Y-48281001D01*
X76600000Y-48094447D01*
X76600000Y-47905552D01*
X77600000Y-47905552D01*
X77600000Y-48094447D01*
X77629548Y-48281002D01*
X77687914Y-48460637D01*
X77764598Y-48611136D01*
X78261269Y-48114466D01*
X78287482Y-48212292D01*
X78359890Y-48337708D01*
X78462292Y-48440110D01*
X78587708Y-48512518D01*
X78685532Y-48538730D01*
X78188861Y-49035400D01*
X78339362Y-49112085D01*
X78518997Y-49170451D01*
X78705553Y-49200000D01*
X78894447Y-49200000D01*
X79081001Y-49170452D01*
X79260637Y-49112084D01*
X79411137Y-49035400D01*
X78914467Y-48538730D01*
X79012292Y-48512518D01*
X79137708Y-48440110D01*
X79240110Y-48337708D01*
X79312518Y-48212292D01*
X79338730Y-48114467D01*
X79835400Y-48611137D01*
X79912084Y-48460637D01*
X79970452Y-48281001D01*
X80000000Y-48094447D01*
X80000000Y-47905552D01*
X79970451Y-47718997D01*
X79912085Y-47539362D01*
X79835400Y-47388861D01*
X79338730Y-47885532D01*
X79312518Y-47787708D01*
X79240110Y-47662292D01*
X79137708Y-47559890D01*
X79012292Y-47487482D01*
X78914466Y-47461269D01*
X79411136Y-46964598D01*
X79260637Y-46887914D01*
X79081002Y-46829548D01*
X78894447Y-46800000D01*
X78705553Y-46800000D01*
X78518997Y-46829547D01*
X78339362Y-46887914D01*
X78339359Y-46887916D01*
X78188862Y-46964598D01*
X78685533Y-47461269D01*
X78587708Y-47487482D01*
X78462292Y-47559890D01*
X78359890Y-47662292D01*
X78287482Y-47787708D01*
X78261269Y-47885533D01*
X77764598Y-47388862D01*
X77687916Y-47539359D01*
X77687914Y-47539362D01*
X77629547Y-47718997D01*
X77600000Y-47905552D01*
X76600000Y-47905552D01*
X76570451Y-47718997D01*
X76512085Y-47539362D01*
X76435400Y-47388861D01*
X75938730Y-47885532D01*
X75912518Y-47787708D01*
X75840110Y-47662292D01*
X75737708Y-47559890D01*
X75612292Y-47487482D01*
X75514464Y-47461269D01*
X76011136Y-46964598D01*
X75860637Y-46887914D01*
X75681002Y-46829548D01*
X75494447Y-46800000D01*
X75305553Y-46800000D01*
X75118997Y-46829548D01*
X74939362Y-46887914D01*
X74771063Y-46973667D01*
X74647385Y-47063524D01*
X74581578Y-47087003D01*
X74513524Y-47071177D01*
X74464830Y-47021071D01*
X74450500Y-46963205D01*
X74450500Y-45298625D01*
X74470185Y-45231586D01*
X74486819Y-45210944D01*
X74537177Y-45160586D01*
X74615690Y-45082073D01*
X74726760Y-44929199D01*
X74812547Y-44760832D01*
X74870940Y-44581118D01*
X74900500Y-44394486D01*
X74900500Y-44205513D01*
X75899500Y-44205513D01*
X75899500Y-44394486D01*
X75929059Y-44581118D01*
X75987454Y-44760836D01*
X76071914Y-44926597D01*
X76073240Y-44929199D01*
X76184310Y-45082073D01*
X76317927Y-45215690D01*
X76470801Y-45326760D01*
X76550347Y-45367290D01*
X76639163Y-45412545D01*
X76639165Y-45412545D01*
X76639168Y-45412547D01*
X76735497Y-45443846D01*
X76818881Y-45470940D01*
X77005514Y-45500500D01*
X77005519Y-45500500D01*
X77194486Y-45500500D01*
X77381118Y-45470940D01*
X77560832Y-45412547D01*
X77729199Y-45326760D01*
X77882073Y-45215690D01*
X78015690Y-45082073D01*
X78126760Y-44929199D01*
X78212547Y-44760832D01*
X78270940Y-44581118D01*
X78300500Y-44394486D01*
X78300500Y-44205513D01*
X78270940Y-44018881D01*
X78212545Y-43839163D01*
X78126759Y-43670800D01*
X78121255Y-43663224D01*
X78015690Y-43517927D01*
X77882073Y-43384310D01*
X77729199Y-43273240D01*
X77560836Y-43187454D01*
X77381118Y-43129059D01*
X77194486Y-43099500D01*
X77194481Y-43099500D01*
X77005519Y-43099500D01*
X77005514Y-43099500D01*
X76818881Y-43129059D01*
X76639163Y-43187454D01*
X76470800Y-43273240D01*
X76383579Y-43336610D01*
X76317927Y-43384310D01*
X76317925Y-43384312D01*
X76317924Y-43384312D01*
X76184312Y-43517924D01*
X76184312Y-43517925D01*
X76184310Y-43517927D01*
X76136610Y-43583579D01*
X76073240Y-43670800D01*
X75987454Y-43839163D01*
X75929059Y-44018881D01*
X75899500Y-44205513D01*
X74900500Y-44205513D01*
X74870940Y-44018881D01*
X74812545Y-43839163D01*
X74726759Y-43670800D01*
X74721255Y-43663224D01*
X74615690Y-43517927D01*
X74482073Y-43384310D01*
X74329199Y-43273240D01*
X74160836Y-43187454D01*
X73981118Y-43129059D01*
X73794486Y-43099500D01*
X73794481Y-43099500D01*
X73605519Y-43099500D01*
X73605514Y-43099500D01*
X73418881Y-43129059D01*
X73239163Y-43187454D01*
X73070800Y-43273240D01*
X72983579Y-43336610D01*
X72917927Y-43384310D01*
X72917925Y-43384312D01*
X72917924Y-43384312D01*
X72784312Y-43517924D01*
X72784312Y-43517925D01*
X72784310Y-43517927D01*
X72736610Y-43583579D01*
X72673240Y-43670800D01*
X72587454Y-43839163D01*
X72529059Y-44018881D01*
X72499500Y-44205513D01*
X72499500Y-44394486D01*
X72529059Y-44581118D01*
X72587454Y-44760836D01*
X72671914Y-44926597D01*
X72673240Y-44929199D01*
X72784310Y-45082073D01*
X72784312Y-45082075D01*
X72913181Y-45210944D01*
X72946666Y-45272267D01*
X72949500Y-45298625D01*
X72949500Y-46675500D01*
X72929815Y-46742539D01*
X72877011Y-46788294D01*
X72825500Y-46799500D01*
X71055143Y-46799500D01*
X71055117Y-46799502D01*
X71030012Y-46802413D01*
X71030008Y-46802415D01*
X70927235Y-46847793D01*
X70847794Y-46927234D01*
X70802415Y-47030006D01*
X70802415Y-47030008D01*
X70799500Y-47055131D01*
X70799500Y-47840283D01*
X70779815Y-47907322D01*
X70763181Y-47927964D01*
X70137181Y-48553964D01*
X70075858Y-48587449D01*
X70006166Y-48582465D01*
X69950233Y-48540593D01*
X69925816Y-48475129D01*
X69925500Y-48466283D01*
X69925500Y-45908843D01*
X69889934Y-45730047D01*
X69889933Y-45730046D01*
X69889933Y-45730042D01*
X69889931Y-45730037D01*
X69820168Y-45561612D01*
X69820166Y-45561608D01*
X69718886Y-45410032D01*
X69718880Y-45410024D01*
X69589975Y-45281119D01*
X69589967Y-45281113D01*
X69438391Y-45179833D01*
X69438387Y-45179831D01*
X69269962Y-45110068D01*
X69269952Y-45110065D01*
X69091156Y-45074500D01*
X69091154Y-45074500D01*
X66637432Y-45074500D01*
X66582296Y-45058687D01*
X66581129Y-45060980D01*
X66422447Y-44980128D01*
X66422446Y-44980127D01*
X66422445Y-44980127D01*
X66257701Y-44926598D01*
X66257699Y-44926597D01*
X66257698Y-44926597D01*
X66126271Y-44905781D01*
X66086611Y-44899500D01*
X65913389Y-44899500D01*
X65873728Y-44905781D01*
X65742302Y-44926597D01*
X65577552Y-44980128D01*
X65423211Y-45058768D01*
X65352608Y-45110065D01*
X65283072Y-45160586D01*
X65283070Y-45160588D01*
X65283069Y-45160588D01*
X65160588Y-45283069D01*
X65160588Y-45283070D01*
X65160586Y-45283072D01*
X65128845Y-45326760D01*
X65058768Y-45423211D01*
X64980128Y-45577552D01*
X64926597Y-45742302D01*
X64900220Y-45908843D01*
X64899500Y-45913389D01*
X64899500Y-46086611D01*
X64926598Y-46257701D01*
X64980127Y-46422445D01*
X65058768Y-46576788D01*
X65160586Y-46716928D01*
X65283072Y-46839414D01*
X65423212Y-46941232D01*
X65577555Y-47019873D01*
X65742299Y-47073402D01*
X65913389Y-47100500D01*
X65913390Y-47100500D01*
X66086610Y-47100500D01*
X66086611Y-47100500D01*
X66257701Y-47073402D01*
X66422445Y-47019873D01*
X66576788Y-46941232D01*
X66576788Y-46941231D01*
X66581129Y-46939020D01*
X66582296Y-46941312D01*
X66637432Y-46925500D01*
X67950500Y-46925500D01*
X68017539Y-46945185D01*
X68063294Y-46997989D01*
X68074500Y-47049500D01*
X68074500Y-49950500D01*
X68054815Y-50017539D01*
X68002011Y-50063294D01*
X67950500Y-50074500D01*
X62025518Y-50074500D01*
X62019490Y-50074353D01*
X62018396Y-50074299D01*
X61953953Y-50071162D01*
X61953939Y-50071163D01*
X61943545Y-50072710D01*
X61940595Y-50073149D01*
X61922345Y-50074500D01*
X61908845Y-50074500D01*
X61844461Y-50087305D01*
X61838526Y-50088336D01*
X61773624Y-50097994D01*
X61773610Y-50097998D01*
X61760899Y-50102552D01*
X61743287Y-50107431D01*
X61730044Y-50110066D01*
X61669410Y-50135180D01*
X61663792Y-50137348D01*
X61602004Y-50159489D01*
X61601991Y-50159495D01*
X61590422Y-50166437D01*
X61574085Y-50174665D01*
X61561616Y-50179830D01*
X61561612Y-50179832D01*
X61561611Y-50179833D01*
X61530326Y-50200736D01*
X61507030Y-50216302D01*
X61501938Y-50219527D01*
X57398102Y-52681829D01*
X57334307Y-52699500D01*
X56206898Y-52699500D01*
X56167853Y-52704188D01*
X56118438Y-52710122D01*
X55977656Y-52765639D01*
X55857077Y-52857077D01*
X55765639Y-52977656D01*
X55710122Y-53118438D01*
X55708433Y-53132508D01*
X55699500Y-53206898D01*
X55699500Y-54793102D01*
X55709391Y-54875466D01*
X55711071Y-54889459D01*
X55709745Y-54889618D01*
X55707472Y-54950892D01*
X55133765Y-56672014D01*
X55130695Y-56680238D01*
X55119949Y-56706183D01*
X55110066Y-56730043D01*
X55105137Y-56754820D01*
X55101159Y-56769828D01*
X55093169Y-56793800D01*
X55086424Y-56847293D01*
X55085016Y-56855967D01*
X55074500Y-56908842D01*
X55074500Y-56934114D01*
X55073526Y-56949623D01*
X55070367Y-56974681D01*
X55070367Y-56974685D01*
X55074188Y-57028450D01*
X55074500Y-57037240D01*
X55074500Y-65565283D01*
X55054815Y-65632322D01*
X55038181Y-65652964D01*
X53327964Y-67363181D01*
X53266641Y-67396666D01*
X53240283Y-67399500D01*
X51906898Y-67399500D01*
X51867853Y-67404188D01*
X51818438Y-67410122D01*
X51677656Y-67465639D01*
X51557077Y-67557077D01*
X51465639Y-67677656D01*
X51410122Y-67818438D01*
X51404188Y-67867853D01*
X51399500Y-67906898D01*
X47600000Y-67906898D01*
X47600000Y-63794071D01*
X51400000Y-63794071D01*
X51400000Y-64045928D01*
X51439397Y-64294669D01*
X51517219Y-64534184D01*
X51631559Y-64758586D01*
X51675991Y-64819742D01*
X51675992Y-64819743D01*
X52378247Y-64117488D01*
X52423978Y-64227890D01*
X52495112Y-64334351D01*
X52585649Y-64424888D01*
X52692110Y-64496022D01*
X52802510Y-64541752D01*
X52100255Y-65244006D01*
X52100256Y-65244007D01*
X52161413Y-65288440D01*
X52385815Y-65402780D01*
X52625330Y-65480602D01*
X52874072Y-65520000D01*
X53125928Y-65520000D01*
X53374669Y-65480602D01*
X53614184Y-65402780D01*
X53838575Y-65288446D01*
X53838588Y-65288438D01*
X53899742Y-65244007D01*
X53899743Y-65244006D01*
X53197488Y-64541752D01*
X53307890Y-64496022D01*
X53414351Y-64424888D01*
X53504888Y-64334351D01*
X53576022Y-64227890D01*
X53621752Y-64117489D01*
X54324006Y-64819743D01*
X54324007Y-64819742D01*
X54368438Y-64758588D01*
X54368446Y-64758575D01*
X54482780Y-64534184D01*
X54560602Y-64294669D01*
X54600000Y-64045928D01*
X54600000Y-63794071D01*
X54560602Y-63545330D01*
X54482780Y-63305815D01*
X54368440Y-63081413D01*
X54324007Y-63020256D01*
X54324006Y-63020255D01*
X53621752Y-63722510D01*
X53576022Y-63612110D01*
X53504888Y-63505649D01*
X53414351Y-63415112D01*
X53307890Y-63343978D01*
X53197488Y-63298247D01*
X53899743Y-62595992D01*
X53899742Y-62595991D01*
X53838586Y-62551559D01*
X53614184Y-62437219D01*
X53374669Y-62359397D01*
X53125928Y-62320000D01*
X52874072Y-62320000D01*
X52625330Y-62359397D01*
X52385815Y-62437219D01*
X52161418Y-62551556D01*
X52161416Y-62551557D01*
X52100256Y-62595991D01*
X52100256Y-62595992D01*
X52802511Y-63298247D01*
X52692110Y-63343978D01*
X52585649Y-63415112D01*
X52495112Y-63505649D01*
X52423978Y-63612110D01*
X52378247Y-63722511D01*
X51675992Y-63020256D01*
X51675991Y-63020256D01*
X51631557Y-63081416D01*
X51631556Y-63081418D01*
X51517219Y-63305815D01*
X51439397Y-63545330D01*
X51400000Y-63794071D01*
X47600000Y-63794071D01*
X47600000Y-48897682D01*
X55700000Y-48897682D01*
X55700000Y-49102317D01*
X55732009Y-49304417D01*
X55795244Y-49499031D01*
X55888139Y-49681347D01*
X55888146Y-49681359D01*
X55890767Y-49684966D01*
X55890769Y-49684967D01*
X56502094Y-49073641D01*
X56534075Y-49192993D01*
X56599901Y-49307007D01*
X56692993Y-49400099D01*
X56807007Y-49465925D01*
X56926358Y-49497905D01*
X56315031Y-50109230D01*
X56318651Y-50111859D01*
X56500968Y-50204755D01*
X56695582Y-50267990D01*
X56897683Y-50300000D01*
X57102317Y-50300000D01*
X57304417Y-50267990D01*
X57499031Y-50204755D01*
X57681346Y-50111860D01*
X57684966Y-50109230D01*
X57073642Y-49497905D01*
X57192993Y-49465925D01*
X57307007Y-49400099D01*
X57400099Y-49307007D01*
X57465925Y-49192993D01*
X57497905Y-49073641D01*
X58109230Y-49684966D01*
X58111860Y-49681346D01*
X58204755Y-49499031D01*
X58267990Y-49304417D01*
X58300000Y-49102317D01*
X58300000Y-48897682D01*
X58267990Y-48695582D01*
X58204755Y-48500968D01*
X58111859Y-48318651D01*
X58109230Y-48315031D01*
X57497905Y-48926357D01*
X57465925Y-48807007D01*
X57400099Y-48692993D01*
X57307007Y-48599901D01*
X57192993Y-48534075D01*
X57073642Y-48502094D01*
X57684967Y-47890769D01*
X57684966Y-47890767D01*
X57681359Y-47888146D01*
X57681347Y-47888139D01*
X57499031Y-47795244D01*
X57304417Y-47732009D01*
X57102317Y-47700000D01*
X56897683Y-47700000D01*
X56695582Y-47732009D01*
X56500965Y-47795245D01*
X56318655Y-47888136D01*
X56315032Y-47890767D01*
X56315032Y-47890768D01*
X56926358Y-48502094D01*
X56807007Y-48534075D01*
X56692993Y-48599901D01*
X56599901Y-48692993D01*
X56534075Y-48807007D01*
X56502094Y-48926358D01*
X55890768Y-48315032D01*
X55890767Y-48315032D01*
X55888136Y-48318655D01*
X55795245Y-48500965D01*
X55732009Y-48695582D01*
X55700000Y-48897682D01*
X47600000Y-48897682D01*
X47600000Y-41878711D01*
X49149500Y-41878711D01*
X49149500Y-42121288D01*
X49181161Y-42361785D01*
X49243947Y-42596104D01*
X49336773Y-42820205D01*
X49336776Y-42820212D01*
X49458064Y-43030289D01*
X49458066Y-43030292D01*
X49458067Y-43030293D01*
X49605733Y-43222736D01*
X49605739Y-43222743D01*
X49777256Y-43394260D01*
X49777262Y-43394265D01*
X49969711Y-43541936D01*
X50179788Y-43663224D01*
X50403900Y-43756054D01*
X50638211Y-43818838D01*
X50818586Y-43842584D01*
X50878711Y-43850500D01*
X50878712Y-43850500D01*
X51121289Y-43850500D01*
X51169388Y-43844167D01*
X51361789Y-43818838D01*
X51596100Y-43756054D01*
X51820212Y-43663224D01*
X52030289Y-43541936D01*
X52222738Y-43394265D01*
X52394265Y-43222738D01*
X52541936Y-43030289D01*
X52663224Y-42820212D01*
X52756054Y-42596100D01*
X52818838Y-42361789D01*
X52850500Y-42121288D01*
X52850500Y-41961050D01*
X65463211Y-41961050D01*
X65577742Y-42019408D01*
X65742415Y-42072914D01*
X65913429Y-42100000D01*
X66086571Y-42100000D01*
X66257584Y-42072914D01*
X66422254Y-42019408D01*
X66536787Y-41961050D01*
X66454448Y-41878711D01*
X112149500Y-41878711D01*
X112149500Y-42121288D01*
X112181161Y-42361785D01*
X112243947Y-42596104D01*
X112336773Y-42820205D01*
X112336776Y-42820212D01*
X112458064Y-43030289D01*
X112458066Y-43030292D01*
X112458067Y-43030293D01*
X112605733Y-43222736D01*
X112605739Y-43222743D01*
X112777256Y-43394260D01*
X112777262Y-43394265D01*
X112969711Y-43541936D01*
X113179788Y-43663224D01*
X113403900Y-43756054D01*
X113638211Y-43818838D01*
X113818586Y-43842584D01*
X113878711Y-43850500D01*
X113878712Y-43850500D01*
X114121289Y-43850500D01*
X114169388Y-43844167D01*
X114361789Y-43818838D01*
X114596100Y-43756054D01*
X114820212Y-43663224D01*
X115030289Y-43541936D01*
X115222738Y-43394265D01*
X115394265Y-43222738D01*
X115541936Y-43030289D01*
X115663224Y-42820212D01*
X115756054Y-42596100D01*
X115818838Y-42361789D01*
X115850500Y-42121288D01*
X115850500Y-41878712D01*
X115818838Y-41638211D01*
X115756054Y-41403900D01*
X115663224Y-41179788D01*
X115541936Y-40969711D01*
X115394265Y-40777262D01*
X115394260Y-40777256D01*
X115222743Y-40605739D01*
X115222736Y-40605733D01*
X115030293Y-40458067D01*
X115030292Y-40458066D01*
X115030289Y-40458064D01*
X114820212Y-40336776D01*
X114820205Y-40336773D01*
X114596104Y-40243947D01*
X114361785Y-40181161D01*
X114121289Y-40149500D01*
X114121288Y-40149500D01*
X113878712Y-40149500D01*
X113878711Y-40149500D01*
X113638214Y-40181161D01*
X113403895Y-40243947D01*
X113179794Y-40336773D01*
X113179785Y-40336777D01*
X112969706Y-40458067D01*
X112777263Y-40605733D01*
X112777256Y-40605739D01*
X112605739Y-40777256D01*
X112605733Y-40777263D01*
X112458067Y-40969706D01*
X112336777Y-41179785D01*
X112336773Y-41179794D01*
X112243947Y-41403895D01*
X112181161Y-41638214D01*
X112149500Y-41878711D01*
X66454448Y-41878711D01*
X66000001Y-41424264D01*
X66000000Y-41424264D01*
X65463211Y-41961050D01*
X52850500Y-41961050D01*
X52850500Y-41878712D01*
X52818838Y-41638211D01*
X52756054Y-41403900D01*
X52663224Y-41179788D01*
X52541936Y-40969711D01*
X52524769Y-40947339D01*
X52498748Y-40913428D01*
X64900000Y-40913428D01*
X64900000Y-41086571D01*
X64927086Y-41257585D01*
X64927086Y-41257588D01*
X64980588Y-41422250D01*
X65038947Y-41536786D01*
X65575736Y-41000000D01*
X65523075Y-40947339D01*
X65600000Y-40947339D01*
X65600000Y-41052661D01*
X65627259Y-41154394D01*
X65679920Y-41245606D01*
X65754394Y-41320080D01*
X65845606Y-41372741D01*
X65947339Y-41400000D01*
X66052661Y-41400000D01*
X66154394Y-41372741D01*
X66245606Y-41320080D01*
X66320080Y-41245606D01*
X66372741Y-41154394D01*
X66400000Y-41052661D01*
X66400000Y-40999999D01*
X66424264Y-40999999D01*
X66424264Y-41000001D01*
X66961050Y-41536787D01*
X67019408Y-41422254D01*
X67072914Y-41257584D01*
X67100000Y-41086571D01*
X67100000Y-40913428D01*
X67072914Y-40742415D01*
X67019408Y-40577742D01*
X66961050Y-40463211D01*
X66424264Y-40999999D01*
X66400000Y-40999999D01*
X66400000Y-40947339D01*
X66372741Y-40845606D01*
X66320080Y-40754394D01*
X66245606Y-40679920D01*
X66154394Y-40627259D01*
X66052661Y-40600000D01*
X65947339Y-40600000D01*
X65845606Y-40627259D01*
X65754394Y-40679920D01*
X65679920Y-40754394D01*
X65627259Y-40845606D01*
X65600000Y-40947339D01*
X65523075Y-40947339D01*
X65038948Y-40463212D01*
X64980589Y-40577746D01*
X64980588Y-40577749D01*
X64927086Y-40742411D01*
X64927086Y-40742414D01*
X64900000Y-40913428D01*
X52498748Y-40913428D01*
X52394266Y-40777263D01*
X52394260Y-40777256D01*
X52222743Y-40605739D01*
X52222736Y-40605733D01*
X52030293Y-40458067D01*
X52030292Y-40458066D01*
X52030289Y-40458064D01*
X51820212Y-40336776D01*
X51820205Y-40336773D01*
X51596104Y-40243947D01*
X51574386Y-40238127D01*
X51361789Y-40181162D01*
X51361788Y-40181161D01*
X51361785Y-40181161D01*
X51121289Y-40149500D01*
X51121288Y-40149500D01*
X50878712Y-40149500D01*
X50878711Y-40149500D01*
X50638214Y-40181161D01*
X50403895Y-40243947D01*
X50179794Y-40336773D01*
X50179785Y-40336777D01*
X49969706Y-40458067D01*
X49777263Y-40605733D01*
X49777256Y-40605739D01*
X49605739Y-40777256D01*
X49605733Y-40777263D01*
X49458067Y-40969706D01*
X49336777Y-41179785D01*
X49336773Y-41179794D01*
X49243947Y-41403895D01*
X49181161Y-41638214D01*
X49149500Y-41878711D01*
X47600000Y-41878711D01*
X47600000Y-40038948D01*
X65463212Y-40038948D01*
X66000000Y-40575736D01*
X66000001Y-40575736D01*
X66536787Y-40038948D01*
X66422250Y-39980588D01*
X66257587Y-39927086D01*
X66086571Y-39900000D01*
X65913429Y-39900000D01*
X65742414Y-39927086D01*
X65742411Y-39927086D01*
X65577749Y-39980588D01*
X65577746Y-39980589D01*
X65463212Y-40038948D01*
X47600000Y-40038948D01*
X47600000Y-37724000D01*
X47619685Y-37656961D01*
X47672489Y-37611206D01*
X47724000Y-37600000D01*
X117276000Y-37600000D01*
X117343039Y-37619685D01*
G37*
%TD.AperFunction*%
%TD*%
M02*
